<svg xmlns="http://www.w3.org/2000/svg" xmlns:xlink="http://www.w3.org/1999/xlink" width="600" zoomAndPan="magnify" viewBox="0 0 450 149.999998" height="200" preserveAspectRatio="xMidYMid meet" version="1.0"><defs><g/><clipPath id="7cc03d2ab9"><path d="M 81.898438 28.519531 L 153.542969 28.519531 L 153.542969 106.800781 L 81.898438 106.800781 Z M 81.898438 28.519531 " clip-rule="nonzero"/></clipPath></defs><g clip-path="url(#7cc03d2ab9)"><path fill="#ffffff" d="M 152.878906 43.964844 L 141.226562 37.246094 C 141.445312 36.585938 141.589844 35.898438 141.589844 35.167969 C 141.589844 31.511719 138.617188 28.535156 134.957031 28.535156 C 131.300781 28.535156 128.324219 31.511719 128.324219 35.167969 C 128.324219 38.824219 131.300781 41.800781 134.957031 41.800781 C 136.929688 41.800781 138.6875 40.917969 139.902344 39.542969 L 150.890625 45.878906 L 150.890625 64.242188 L 134.96875 73.421875 L 119.050781 64.242188 L 119.050781 45.117188 C 119.050781 44.644531 118.796875 44.207031 118.386719 43.96875 L 101.136719 34.023438 C 100.726562 33.785156 100.222656 33.785156 99.8125 34.023438 L 82.5625 43.96875 C 82.152344 44.207031 81.898438 44.644531 81.898438 45.117188 L 81.898438 65.011719 C 81.898438 65.484375 82.152344 65.921875 82.5625 66.160156 L 99.144531 75.722656 L 99.144531 95.511719 C 99.144531 95.984375 99.398438 96.421875 99.808594 96.660156 L 117.054688 106.605469 C 117.261719 106.726562 117.492188 106.785156 117.71875 106.785156 C 117.949219 106.785156 118.179688 106.726562 118.382812 106.605469 L 130.421875 99.660156 C 131.613281 100.777344 133.199219 101.476562 134.957031 101.476562 C 138.617188 101.476562 141.589844 98.5 141.589844 94.84375 C 141.589844 91.1875 138.617188 88.214844 134.957031 88.214844 C 131.300781 88.214844 128.324219 91.1875 128.324219 94.84375 C 128.324219 95.785156 128.527344 96.675781 128.878906 97.484375 L 117.71875 103.925781 L 101.796875 94.746094 L 101.796875 75.726562 L 117.722656 66.542969 L 134.304688 76.101562 C 134.511719 76.222656 134.738281 76.28125 134.96875 76.28125 C 135.199219 76.28125 135.425781 76.222656 135.632812 76.101562 L 152.878906 66.15625 C 153.289062 65.917969 153.542969 65.480469 153.542969 65.007812 L 153.542969 45.113281 C 153.542969 44.640625 153.289062 44.203125 152.878906 43.964844 Z M 134.957031 39.148438 C 132.761719 39.148438 130.976562 37.363281 130.976562 35.167969 C 130.976562 32.972656 132.761719 31.191406 134.957031 31.191406 C 137.152344 31.191406 138.9375 32.972656 138.9375 35.167969 C 138.9375 37.363281 137.152344 39.148438 134.957031 39.148438 Z M 134.957031 90.867188 C 137.152344 90.867188 138.9375 92.652344 138.9375 94.84375 C 138.9375 97.039062 137.152344 98.824219 134.957031 98.824219 C 132.761719 98.824219 130.976562 97.039062 130.976562 94.84375 C 130.976562 92.652344 132.761719 90.867188 134.957031 90.867188 Z M 116.394531 64.246094 L 100.472656 73.425781 L 84.554688 64.246094 L 84.554688 45.882812 L 100.472656 36.703125 L 116.394531 45.882812 Z M 116.394531 64.246094 " fill-opacity="1" fill-rule="nonzero"/></g><g fill="#ffffff" fill-opacity="1"><g transform="translate(168.67433, 83.926967)"><g><path d="M 6.40625 -44.796875 L 38.390625 -44.796875 L 38.390625 -19.203125 L 12.796875 -19.203125 L 12.796875 0 L 6.40625 0 Z M 12.796875 -38.390625 L 12.796875 -25.59375 L 32 -25.59375 L 32 -38.390625 Z M 12.796875 -38.390625 "/></g></g></g><g fill="#ffffff" fill-opacity="1"><g transform="translate(207.070939, 83.926967)"><g><path d="M 6.40625 -32 L 38.390625 -32 L 38.390625 -12.796875 L 12.796875 -12.796875 L 12.796875 -6.40625 L 38.390625 -6.40625 L 38.390625 0 L 6.40625 0 Z M 12.796875 -25.59375 L 12.796875 -19.203125 L 32 -19.203125 L 32 -25.59375 Z M 12.796875 -25.59375 "/></g></g></g><g fill="#ffffff" fill-opacity="1"><g transform="translate(245.467548, 83.926967)"><g><path d="M 12.796875 -44.796875 L 19.203125 -44.796875 L 19.203125 -32 L 32 -32 L 32 -25.59375 L 19.203125 -25.59375 L 19.203125 -6.40625 L 32 -6.40625 L 32 0 L 12.796875 0 L 12.796875 -25.59375 L 6.40625 -25.59375 L 6.40625 -32 L 12.796875 -32 Z M 12.796875 -44.796875 "/></g></g></g><g fill="#ffffff" fill-opacity="1"><g transform="translate(277.464721, 83.926967)"><g><path d="M 6.40625 -32 L 38.390625 -32 L 38.390625 -12.796875 L 12.796875 -12.796875 L 12.796875 -6.40625 L 38.390625 -6.40625 L 38.390625 0 L 6.40625 0 Z M 12.796875 -25.59375 L 12.796875 -19.203125 L 32 -19.203125 L 32 -25.59375 Z M 12.796875 -25.59375 "/></g></g></g><g fill="#ffffff" fill-opacity="1"><g transform="translate(315.86133, 83.926967)"><g><path d="M 6.40625 -32 L 12.796875 -32 L 12.796875 -23.8125 L 20.984375 -32 L 32 -32 L 32 -25.59375 L 23.8125 -25.59375 L 12.796875 -14.59375 L 12.796875 0 L 6.40625 0 Z M 6.40625 -32 "/></g></g></g></svg>